<svg xmlns="http://www.w3.org/2000/svg">
  <symbol fill="currentColor" width="24px" height="24px" viewBox="0 0 256 256" id="telegram-svg">
    <g opacity="0.2">
      <path
        d="M88,134.87236,224.11223,36.56908l.00168-.00367a7.87244,7.87244,0,0,0-6.22314-.15014L33.33393,108.91975a8,8,0,0,0,1.35629,15.29065Z" />
    </g>
    <g opacity="0.2">
      <path d="M132.90708,174.39059l-31.25023,31.25023A8,8,0,0,1,88,199.984v-65.1116Z" />
    </g>
    <path
      d="M231.25586,31.73635a15.9634,15.9634,0,0,0-16.29-2.76758L30.40869,101.47365a15.99988,15.99988,0,0,0,2.7124,30.58106L80,141.43069V199.9844a15.99415,15.99415,0,0,0,27.31348,11.31347L133.25684,185.355l39.376,34.65088a15.86863,15.86863,0,0,0,10.51709,4.00293,16.15674,16.15674,0,0,0,4.96338-.78711,15.86491,15.86491,0,0,0,10.68457-11.65332L236.41162,47.43557A15.96073,15.96073,0,0,0,231.25586,31.73635ZM86.14648,126.34279l-49.88574-9.977L175.94238,61.49026ZM96,199.97658V152.56887l25.21973,22.1936Zm87.20215,8.01758L100.81006,135.4883l118.64453-85.687Z" />
  </symbol>

  <symbol viewBox="-0.5 0 25 25" fill="none" id='email-svg'>
    <path
      d="M22.0098 12.39V7.39001C22.0098 6.32915 21.5883 5.31167 20.8382 4.56152C20.0881 3.81138 19.0706 3.39001 18.0098 3.39001H6.00977C4.9489 3.39001 3.93148 3.81138 3.18134 4.56152C2.43119 5.31167 2.00977 6.32915 2.00977 7.39001V17.39C2.00977 18.4509 2.43119 19.4682 3.18134 20.2184C3.93148 20.9685 4.9489 21.39 6.00977 21.39H12.0098"
      stroke="currentColor" stroke-width="1.5" stroke-linecap="round" stroke-linejoin="round" />
    <path d="M21.209 5.41992C15.599 16.0599 8.39906 16.0499 2.78906 5.41992" stroke="currentColor"
      stroke-width="1.5" stroke-linecap="round" stroke-linejoin="round" />
    <path d="M15.0098 18.39H23.0098" stroke="currentColor" stroke-width="1.5" stroke-linecap="round"
      stroke-linejoin="round" />
    <path d="M20.0098 15.39L23.0098 18.39L20.0098 21.39" stroke="currentColor" stroke-width="1.5"
      stroke-linecap="round" stroke-linejoin="round" />
  </symbol>

  <symbol viewBox="0 0 192 192" fill="none" id='github-svg'>
    <path stroke="currentColor" stroke-linecap="round" stroke-linejoin="round" stroke-width="12"
      d="M120.755 170c.03-4.669.059-20.874.059-27.29 0-9.272-3.167-15.339-6.719-18.41 22.051-2.464 45.201-10.863 45.201-49.067 0-10.855-3.824-19.735-10.175-26.683 1.017-2.516 4.413-12.63-.987-26.32 0 0-8.296-2.672-27.202 10.204-7.912-2.213-16.371-3.308-24.784-3.352-8.414.044-16.872 1.14-24.785 3.352C52.457 19.558 44.162 22.23 44.162 22.23c-5.4 13.69-2.004 23.804-.987 26.32C36.824 55.498 33 64.378 33 75.233c0 38.204 23.149 46.603 45.2 49.067-3.551 3.071-6.719 9.138-6.719 18.41 0 6.416.03 22.621.059 27.29M27 130c9.939.703 15.67 9.735 15.67 9.735 8.834 15.199 23.178 10.803 28.815 8.265" />
  </symbol>

  <symbol viewBox="0 0 512 512" id='pdf-svg'>
    <g>
      <path fill='currentColor'
        d="M378.413,0H208.297h-13.182L185.8,9.314L57.02,138.102l-9.314,9.314v13.176v265.514
        c0,47.36,38.528,85.895,85.896,85.895h244.811c47.353,0,85.881-38.535,85.881-85.895V85.896C464.294,38.528,425.766,0,378.413,0z
        M432.497,426.105c0,29.877-24.214,54.091-54.084,54.091H133.602c-29.884,0-54.098-24.214-54.098-54.091V160.591h83.716
        c24.885,0,45.077-20.178,45.077-45.07V31.804h170.116c29.87,0,54.084,24.214,54.084,54.092V426.105z" />
      <path fill='currentColor'
        d="M171.947,252.785h-28.529c-5.432,0-8.686,3.533-8.686,8.825v73.754c0,6.388,4.204,10.599,10.041,10.599
        c5.711,0,9.914-4.21,9.914-10.599v-22.406c0-0.545,0.279-0.817,0.824-0.817h16.436c20.095,0,32.188-12.226,32.188-29.612
        C204.136,264.871,192.182,252.785,171.947,252.785z M170.719,294.888h-15.208c-0.545,0-0.824-0.272-0.824-0.81v-23.23
        c0-0.545,0.279-0.816,0.824-0.816h15.208c8.42,0,13.447,5.027,13.447,12.498C184.167,290,179.139,294.888,170.719,294.888z" />
      <path fill='currentColor'
        d="M250.191,252.785h-21.868c-5.432,0-8.686,3.533-8.686,8.825v74.843c0,5.3,3.253,8.693,8.686,8.693h21.868
        c19.69,0,31.923-6.249,36.81-21.324c1.76-5.3,2.723-11.681,2.723-24.857c0-13.175-0.964-19.557-2.723-24.856
        C282.113,259.034,269.881,252.785,250.191,252.785z M267.856,316.896c-2.318,7.331-8.965,10.459-18.21,10.459h-9.23
        c-0.545,0-0.824-0.272-0.824-0.816v-55.146c0-0.545,0.279-0.817,0.824-0.817h9.23c9.245,0,15.892,3.128,18.21,10.46
        c0.95,3.128,1.62,8.56,1.62,17.93C269.476,308.336,268.805,313.768,267.856,316.896z" />
      <path fill='currentColor'
        d="M361.167,252.785h-44.812c-5.432,0-8.7,3.533-8.7,8.825v73.754c0,6.388,4.218,10.599,10.055,10.599
        c5.697,0,9.914-4.21,9.914-10.599v-26.351c0-0.538,0.265-0.81,0.81-0.81h26.086c5.837,0,9.23-3.532,9.23-8.56
        c0-5.028-3.393-8.553-9.23-8.553h-26.086c-0.545,0-0.81-0.272-0.81-0.817v-19.425c0-0.545,0.265-0.816,0.81-0.816h32.733
        c5.572,0,9.245-3.666,9.245-8.553C370.411,256.45,366.738,252.785,361.167,252.785z" />
    </g>
  </symbol>

  <symbol viewBox="0 0 24 24" fill="none" id='lamp-svg'>
    <path opacity="0.4"
      d="M18.2106 14.69H5.7906C4.1306 14.69 3.1306 13.38 3.5706 11.78L5.7706 3.7C6.0206 2.77 7.0306 2 7.9906 2H16.0106C16.9706 2 17.9806 2.77 18.2306 3.7L20.4306 11.78C20.8706 13.38 19.8706 14.69 18.2106 14.69Z"
      fill="currentColor" />
    <path
      d="M16.75 21.2499C16.75 21.6599 16.41 21.9999 16 21.9999H8C7.59 21.9999 7.25 21.6599 7.25 21.2499C7.25 20.8399 7.59 20.4999 8 20.4999H11.25V14.6899H12.75V20.4999H16C16.41 20.4999 16.75 20.8399 16.75 21.2499Z"
      fill="currentColor" />
  </symbol>
</svg>